<?xml version="1.0" standalone="no"?>
<!DOCTYPE svg PUBLIC "-//W3C//DTD SVG 1.1//EN" "http://www.w3.org/Graphics/SVG/1.1/DTD/svg11.dtd" >
<svg xmlns="http://www.w3.org/2000/svg">
<metadata>
Created by FontForge 20120731 at Tue Sep 27 13:45:31 2016
 By admin
</metadata>
<defs>
<font id="iconfont" horiz-adv-x="1024" >
  <font-face 
    font-family="iconfont"
    font-weight="500"
    font-stretch="normal"
    units-per-em="1024"
    panose-1="2 0 6 3 0 0 0 0 0 0"
    ascent="896"
    descent="-128"
    x-height="792"
    bbox="0 -156 1431 896.185"
    underline-thickness="50"
    underline-position="-100"
    unicode-range="U+0078-E624"
  />
<missing-glyph horiz-adv-x="374" 
d="M34 0v682h272v-682h-272zM68 34h204v614h-204v-614z" />
    <glyph glyph-name=".notdef" horiz-adv-x="374" 
d="M34 0v682h272v-682h-272zM68 34h204v614h-204v-614z" />
    <glyph glyph-name=".null" horiz-adv-x="0" 
 />
    <glyph glyph-name="nonmarkingreturn" horiz-adv-x="341" 
 />
    <glyph glyph-name="x" unicode="x" horiz-adv-x="1001" 
d="M281 543q-27 -1 -53 -1h-83q-18 0 -36.5 -6t-32.5 -18.5t-23 -32t-9 -45.5v-76h912v41q0 16 -0.5 30t-0.5 18q0 13 -5 29t-17 29.5t-31.5 22.5t-49.5 9h-133v-97h-438v97zM955 310v-52q0 -23 0.5 -52t0.5 -58t-10.5 -47.5t-26 -30t-33 -16t-31.5 -4.5q-14 -1 -29.5 -0.5
t-29.5 0.5h-32l-45 128h-439l-44 -128h-29h-34q-20 0 -45 1q-25 0 -41 9.5t-25.5 23t-13.5 29.5t-4 30v167h911zM163 247q-12 0 -21 -8.5t-9 -21.5t9 -21.5t21 -8.5q13 0 22 8.5t9 21.5t-9 21.5t-22 8.5zM316 123q-8 -26 -14 -48q-5 -19 -10.5 -37t-7.5 -25t-3 -15t1 -14.5
t9.5 -10.5t21.5 -4h37h67h81h80h64h36q23 0 34 12t2 38q-5 13 -9.5 30.5t-9.5 34.5q-5 19 -11 39h-368zM336 498v228q0 11 2.5 23t10 21.5t20.5 15.5t34 6h188q31 0 51.5 -14.5t20.5 -52.5v-227h-327z" />
    <glyph glyph-name="uniE600" unicode="&#xe600;" 
d="M1020 -79q0 -20 -14.5 -34.5t-34.5 -14.5h-681q-20 0 -34 14.5t-14 34.5q0 63 22 123t57 104t71.5 75t70.5 48q-4 4 -8.5 9t-8 9t-8 11t-6.5 10.5t-7 12t-6.5 11.5t-6.5 12.5t-6 11.5q-40 74 -40 163q0 126 74 215q78 94 190.5 94t190.5 -94q75 -89 75 -215
q0 -88 -40 -163q-5 -10 -13.5 -29t-16 -32t-18.5 -23q36 -18 71.5 -49.5t68 -75.5t52.5 -104t20 -124zM684 249q6 2 15.5 7.5t33 27.5t42 49t33 76t14.5 106q0 37 -12 76.5t-34.5 75.5t-60 59t-82.5 23q-54 0 -99 -34t-68 -84t-23 -102q0 -42 14 -86.5t34.5 -78t40.5 -60
t34.5 -41.5t14.5 -14q-5 -1 -13 -3.5t-31 -13t-44.5 -23.5t-49 -37t-47.5 -52q-27 -36 -45.5 -82t-24 -70t-5.5 -28h624q-1 4 -1.5 11t-5.5 30t-14 46.5t-28 57t-44 65.5q-28 33 -70 58t-70 33zM442 814q-27 11 -54 11q-51 0 -93 -33t-64 -82t-22 -100q0 -43 13.5 -89
t32.5 -81t38.5 -64.5t32.5 -45.5t14 -16q-13 -5 -33.5 -15t-70 -43.5t-81.5 -69.5q-30 -33 -49 -78t-23 -74l-3 -29h122q-10 -32 -9 -67h-144q-20 0 -34 14t-14 34q0 64 22 124t57 103.5t71.5 75t70.5 47.5q-4 4 -8.5 9t-8 9.5t-8 11.5t-7 10.5t-7 12t-6 11t-6.5 12.5t-6 11
q-41 75 -41 164q0 125 75 215q78 94 191 94q63 0 119 -33q-38 -21 -59 -41z" />
    <glyph glyph-name="uniE601" unicode="&#xe601;" 
d="M1020 -79q0 -20 -14 -34.5t-34 -14.5h-682q-20 0 -34 14.5t-14 34.5q0 63 22 123t57 104t71.5 75t71.5 48q-5 4 -9.5 9t-7.5 9t-8 11t-7 10.5t-7 12t-6.5 11.5t-6.5 12.5t-6 11.5q-40 75 -40 164q0 125 74 215q78 93 190.5 93t191.5 -93q74 -90 74 -215q0 -89 -40 -164
q-5 -10 -13.5 -29t-16 -32t-18.5 -23q36 -17 72 -49t68 -76t52 -104t20 -124zM440 813q-12 -11 -26 -26l-30 -31v-6q-64 -90 -73 -198q-3 -39 4 -80t19.5 -72.5t25.5 -57.5t22 -40l10 -13q-8 -6 -21 -15.5t-44 -40t-52 -61.5q-22 -32 -40.5 -74t-26 -66t-7.5 -27h1
q-9 -32 -9 -67h-2h-142q-20 0 -34 14t-14 34q0 64 22 124t57 103.5t71.5 75t71.5 48.5q-5 4 -9.5 9t-8 9t-8 11t-6.5 10.5t-7 12t-6.5 11.5t-6.5 12.5t-6 11.5q-40 75 -40 163q0 126 74 215q78 94 191 94q64 0 120 -33q-39 -21 -60 -41q-3 -3 -10 -9z" />
    <glyph glyph-name="uniE602" unicode="&#xe602;" 
d="M808 -33h-18q0 -39 -28 -67t-67.5 -28t-67 28t-27.5 67h-264q0 -39 -27.5 -67t-67 -28t-67.5 28t-28 67h-18q-53 0 -90.5 37.5t-37.5 90.5v395q0 53 37.5 90.5t90.5 37.5h680q53 0 90.5 -37.5t37.5 -90.5v-395q0 -53 -37.5 -90.5t-90.5 -37.5zM872 490q0 27 -18.5 45.5
t-45.5 18.5h-680q-26 0 -45 -18.5t-19 -45.5v-395q0 -26 19 -45t45 -19h77v-64q2 -15 13 -25.5t27 -10.5t27 10.5t13 25.5v64h373v-64h1q1 -15 12.5 -25.5t27 -10.5t27 10.5t12.5 25.5h1v64h69q27 0 45.5 19t18.5 45v395zM698.5 135q-15.5 0 -27 10.5t-12.5 26.5h-1v241h1
q1 16 12.5 26.5t27 10.5t27 -10.5t12.5 -26.5h1v-241h-1q-1 -16 -12.5 -26.5t-27 -10.5zM252.5 135q-15.5 0 -27 10.5t-13.5 26.5v241q2 16 13.5 26.5t27 10.5t27 -10.5t12.5 -26.5h1v-241h-1q-1 -16 -12.5 -26.5t-27 -10.5zM691.5 669q-15.5 0 -27 10.5t-13.5 26.5v95
q0 10 -5.5 15.5t-10.5 5.5l-6 1h-314q-4 0 -8.5 -0.5t-13 -6t-8.5 -15.5v-95q-2 -16 -13 -26.5t-27 -10.5t-27 10.5t-13 26.5v95q0 27 8 46.5t20 28.5t24 14t20 5l8 1h366q3 0 8.5 -0.5t19.5 -5.5t24.5 -14t19 -28.5t8.5 -46.5v-95q-1 -16 -12.5 -26.5t-27 -10.5z" />
    <glyph glyph-name="uniE603" unicode="&#xe603;" 
d="M808 -33h-19q0 -39 -27.5 -67t-67 -28t-67 28t-27.5 67h-263q0 -39 -28 -67t-67 -28t-67 28t-28 67h-18q-53 0 -90.5 37.5t-37.5 90.5v394q0 53 37.5 90.5t90.5 37.5h679q53 0 90 -37.5t37 -90.5v-394q0 -53 -37 -90.5t-90 -37.5zM293 412q-2 16 -13.5 26.5t-27 10.5
t-27 -10.5t-12.5 -26.5v-241q1 -15 12.5 -25.5t27 -10.5t27 10.5t13.5 25.5v241zM738 412q-1 16 -12.5 26.5t-27 10.5t-27 -10.5t-13.5 -26.5v-241q2 -15 13.5 -25.5t27 -10.5t27 10.5t12.5 25.5v241zM690.5 668q-15.5 0 -26.5 10.5t-13 25.5v95q0 10 -5.5 15.5t-11.5 6.5
h-5h-314q-3 0 -8 -0.5t-13 -5.5t-8 -16v-95h-1q-1 -15 -12.5 -25.5t-27 -10.5t-27 10.5t-12.5 25.5h-1v95q0 27 8.5 46.5t20.5 28.5t23.5 14t19.5 6h9h365q3 0 8.5 -0.5t19.5 -5.5t24.5 -13.5t19 -28.5t8.5 -47v-95q-2 -15 -13.5 -25.5t-27 -10.5z" />
    <glyph glyph-name="uniE604" unicode="&#xe604;" 
d="M896 -128h-768q-53 0 -90.5 37.5t-37.5 90.5v896h1024v-896q0 -53 -37.5 -90.5t-90.5 -37.5zM960 832h-896v-832q0 -26 19 -45t45 -19h768q26 0 45 19t19 45v832zM864 64h-704q-13 0 -22.5 9.5t-9.5 22.5t9.5 22.5t22.5 9.5h704q13 0 22.5 -9.5t9.5 -22.5t-9.5 -22.5
t-22.5 -9.5zM864 192h-704q-13 0 -22.5 9.5t-9.5 22.5t9.5 22.5t22.5 9.5h704q13 0 22.5 -9.5t9.5 -22.5t-9.5 -22.5t-22.5 -9.5zM864 320h-704q-13 0 -22.5 9.5t-9.5 22.5t9.5 22.5t22.5 9.5h704q13 0 22.5 -9.5t9.5 -22.5t-9.5 -22.5t-22.5 -9.5zM864 448h-224
q-13 0 -22.5 9.5t-9.5 22.5t9.5 22.5t22.5 9.5h224q13 0 22.5 -9.5t9.5 -22.5t-9.5 -22.5t-22.5 -9.5zM864 576h-224q-13 0 -22.5 9.5t-9.5 22.5t9.5 22.5t22.5 9.5h224q13 0 22.5 -9.5t9.5 -22.5t-9.5 -22.5t-22.5 -9.5zM864 704h-224q-13 0 -22.5 9.5t-9.5 22.5t9.5 22.5
t22.5 9.5h224q13 0 22.5 -9.5t9.5 -22.5t-9.5 -22.5t-22.5 -9.5zM480 448h-288q-26 0 -45 19t-19 45v192q0 26 19 45t45 19h288q26 0 45 -19t19 -45v-192q0 -26 -19 -45t-45 -19zM192 704v-192h288v192h-288z" />
    <glyph glyph-name="uniE605" unicode="&#xe605;" 
d="M896 -128h-768q-53 0 -90.5 37.5t-37.5 90.5v896h1024v-896q0 -53 -37.5 -90.5t-90.5 -37.5zM544 704q0 26 -19 45t-45 19h-288q-26 0 -45 -19t-19 -45v-192q0 -26 19 -45t45 -19h288q26 0 45 19t19 45v192zM864 768h-224q-13 0 -22.5 -9.5t-9.5 -22.5t9.5 -22.5
t22.5 -9.5h224q13 0 22.5 9.5t9.5 22.5t-9.5 22.5t-22.5 9.5zM864 640h-224q-13 0 -22.5 -9.5t-9.5 -22.5t9.5 -22.5t22.5 -9.5h224q13 0 22.5 9.5t9.5 22.5t-9.5 22.5t-22.5 9.5zM864 512h-224q-13 0 -22.5 -9.5t-9.5 -22.5t9.5 -22.5t22.5 -9.5h224q13 0 22.5 9.5
t9.5 22.5t-9.5 22.5t-22.5 9.5zM864 384h-704q-13 0 -22.5 -9.5t-9.5 -22.5t9.5 -22.5t22.5 -9.5h704q13 0 22.5 9.5t9.5 22.5t-9.5 22.5t-22.5 9.5zM864 256h-704q-13 0 -22.5 -9.5t-9.5 -22.5t9.5 -22.5t22.5 -9.5h704q13 0 22.5 9.5t9.5 22.5t-9.5 22.5t-22.5 9.5z
M864 128h-704q-13 0 -22.5 -9.5t-9.5 -22.5t9.5 -22.5t22.5 -9.5h704q13 0 22.5 9.5t9.5 22.5t-9.5 22.5t-22.5 9.5zM192 512v192h288v-192h-288z" />
    <glyph glyph-name="uniE606" unicode="&#xe606;" horiz-adv-x="1025" 
d="M896 -128h-768q-53 0 -90.5 37.5t-37.5 90.5v768q0 53 37.5 90.5t90.5 37.5h768q53 0 90.5 -37.5t37.5 -90.5v-768q0 -53 -37.5 -90.5t-90.5 -37.5zM960 768q0 26 -18.5 45t-45.5 19h-768q-26 0 -45 -19t-19 -45v-768q0 -26 19 -45t45 -19h768q27 0 45.5 19t18.5 45v768z
M834 77v0h-293q-15 0 -25.5 10.5t-10.5 25.5t10.5 26t25.5 11h293v0q15 0 26 -11t11 -26t-11 -25.5t-26 -10.5zM834 238v0h-293q-15 0 -25.5 10.5t-10.5 25.5t10.5 26t25.5 11h293v0q15 0 26 -11t11 -26t-11 -25.5t-26 -10.5zM834 494v0h-293q-15 0 -25.5 10.5t-10.5 25.5
t10.5 26t25.5 11h293v0q15 0 26 -11t11 -26t-11 -25.5t-26 -10.5zM834 640v0h-293q-15 0 -25.5 10.5t-10.5 26t10.5 26t25.5 10.5h293v0q15 0 26 -10.5t11 -26t-11 -26t-26 -10.5zM424 625l-144 -115v1q-19 -15 -38 -2l-96 64q-11 7 -13.5 20t4.5 24q10 15 27 15q10 0 18 -6
l76 -51l123 94q6 8 22 8q12 0 20.5 -9t8.5 -21q0 -7 -2 -12.5t-4 -7.5zM248.5 351q59.5 0 101.5 -42t42 -101.5t-42 -102t-101.5 -42.5t-102 42.5t-42.5 102t42.5 101.5t102 42zM248.5 127q33.5 0 56.5 23.5t23 56.5t-23 56.5t-56.5 23.5t-57 -23.5t-23.5 -56.5t23.5 -56.5
t57 -23.5z" />
    <glyph glyph-name="uniE607" unicode="&#xe607;" 
d="M896 -128h-768q-53 0 -90.5 37.5t-37.5 90.5v768q0 53 37.5 90.5t90.5 37.5h768q53 0 90.5 -37.5t37.5 -90.5v-768q0 -53 -37.5 -90.5t-90.5 -37.5zM104 207.5q0 -59.5 42.5 -102t102 -42.5t101.5 42.5t42 102t-42 101.5t-101.5 42t-102 -42t-42.5 -101.5zM402 677
q-7 0 -12.5 -2t-7.5 -4l-2 -2l-122 -94l-77 51q-8 6 -17 6q-17 0 -27 -14q-7 -12 -4.5 -25t13.5 -20l96 -64q19 -13 37 2l1 -1l144 115q8 7 8 22q0 12 -9 21t-21 9zM834 713v0h-293q-15 0 -25.5 -10.5t-10.5 -26t10.5 -26t25.5 -10.5h293v0q15 0 25.5 10.5t10.5 26t-10.5 26
t-25.5 10.5zM834 567v0h-293q-15 0 -25.5 -11t-10.5 -26t10.5 -25.5t25.5 -10.5h293v0q15 0 25.5 10.5t10.5 25.5t-10.5 26t-25.5 11zM834 311v0h-293q-15 0 -25.5 -11t-10.5 -26t10.5 -25.5t25.5 -10.5h293v0q15 0 25.5 10.5t10.5 25.5t-10.5 26t-25.5 11zM834 150v0h-293
q-15 0 -25.5 -10.5t-10.5 -26t10.5 -26t25.5 -10.5h293v0q15 0 25.5 10.5t10.5 26t-10.5 26t-25.5 10.5zM248 287q33 0 56.5 -23.5t23.5 -56.5t-23.5 -56.5t-56.5 -23.5t-56.5 23.5t-23.5 56.5t23.5 56.5t56.5 23.5z" />
    <glyph glyph-name="uniE608" unicode="&#xe608;" horiz-adv-x="1025" 
d="M896 -128h-768q-53 0 -90.5 37.5t-37.5 90.5v673q0 53 37.5 90.5t90.5 37.5h62q2 40 30.5 67.5t68.5 27.5t68.5 -27.5t29.5 -67.5h250q1 40 29.5 67.5t68.5 27.5t68.5 -27.5t30.5 -67.5h62q53 0 90.5 -37.5t37.5 -90.5v-673q0 -53 -37.5 -90.5t-90.5 -37.5zM960 673
q0 26 -19 45t-45 19h-121v64q-1 15 -12.5 26t-27.5 11t-27 -11t-13 -26v-64h-366v64q-2 15 -13 26t-27 11t-27.5 -11t-12.5 -26v-64h-121q-26 0 -45 -19t-19 -45v-121h896v121zM960 479h-896v-479q0 -26 19 -45t45 -19h768q26 0 45 19t19 45v479zM805 194v0h-600
q-15 0 -26 10.5t-11 26t11 26t26 10.5h600v0q15 0 25.5 -10.5t10.5 -26t-10.5 -26t-25.5 -10.5zM805 325v0h-600q-15 1 -26 11.5t-11 25.5t11 26t26 11h600v0q15 0 25.5 -11t10.5 -26t-10.5 -26t-25.5 -11zM205 135h409v0q16 0 26.5 -10.5t10.5 -25.5t-10.5 -26t-26.5 -11v0
h-409q-15 0 -26 11t-11 26t11 25.5t26 10.5zM651 677h183v0q15 0 25.5 -11t10.5 -26t-10.5 -26t-25.5 -11v0h-183q-15 0 -26 11t-11 26t11 26t26 11z" />
    <glyph glyph-name="uniE609" unicode="&#xe609;" 
d="M896 -128h-768q-53 0 -90.5 37.5t-37.5 90.5v479h1024v73h-1024v121q0 53 37.5 90.5t90.5 37.5h62q2 39 30.5 67t68.5 28t68.5 -28t29.5 -67h250q1 39 29.5 67t68.5 28t68.5 -28t30.5 -67h62q53 0 90.5 -37.5t37.5 -90.5v-673q0 -53 -37.5 -90.5t-90.5 -37.5zM205 62h409
v0q16 0 26.5 10.5t10.5 26t-10.5 26t-26.5 10.5v0h-409q-15 0 -26 -10.5t-11 -26t11 -26t26 -10.5zM805 398v0h-600q-15 0 -26 -10.5t-11 -25.5t11 -26t26 -11h600v0q15 0 25.5 11t10.5 26t-10.5 25.5t-25.5 10.5zM805 267v0h-600q-15 0 -26 -11t-11 -26t11 -25.5t26 -11.5
h600v0q15 0 25.5 11t10.5 26t-10.5 26t-25.5 11zM834 676v0h-183q-15 0 -26 -10.5t-11 -25.5t11 -26t26 -11h183v0q15 0 25.5 11t10.5 26t-10.5 25.5t-25.5 10.5z" />
    <glyph glyph-name="uniE60A" unicode="&#xe60a;" horiz-adv-x="1026" 
d="M1002 67l-480 -128q-4 -1 -8.5 -1t-8.5 1l-480 128q-11 3 -17.5 11.5t-6.5 19.5v766q0 16 12.5 25.5t28.5 5.5l471 -126l472 126q15 4 28 -6q12 -9 12 -25v-766q0 -11 -6.5 -19.5t-16.5 -11.5zM481 711l-416 111v-699l416 -111v699zM961 822l-416 -111v-699l416 111v699z
M633 577l224 60q13 4 24.5 -2.5t15 -19.5t-3.5 -24.5t-20 -14.5l-223 -60q-5 -1 -9 -1q-11 0 -19.5 6.5t-11.5 16.5q-3 13 3.5 24.5t19.5 14.5zM633 418l224 60q13 3 24.5 -3.5t15 -19.5t-3.5 -24t-20 -15l-224 -60q-4 -1 -8 -1q-11 0 -19.5 6.5t-11.5 17.5q-3 13 3.5 24
t19.5 15zM633 258l224 60q13 4 24.5 -3t15 -19.5t-3.5 -24t-20 -14.5l-224 -60q-4 -1 -8 -1q-11 0 -19.5 6.5t-11.5 16.5q-3 13 3.5 24.5t19.5 14.5zM170 637l224 -60q12 -3 19 -14.5t3 -24.5q-3 -10 -11.5 -16.5t-19.5 -6.5q-4 0 -8 1l-224 60q-13 3 -19.5 14.5t-3 24.5
t15 19.5t24.5 2.5zM170 478l224 -60q12 -4 19 -15t3 -24q-3 -11 -11.5 -17.5t-19.5 -6.5q-4 0 -8 1l-224 60q-13 4 -19.5 15t-3 24t15 19.5t24.5 3.5zM170 318l224 -60q12 -3 19 -14.5t3 -24.5q-3 -10 -11.5 -16.5t-19.5 -6.5q-4 0 -8 1l-224 60q-13 3 -19.5 14.5t-3 24
t15 19.5t24.5 3z" />
    <glyph glyph-name="uniE60B" unicode="&#xe60b;" 
d="M1000 67l-480 -128q-4 -1 -8 -1t-8 1l-480 128q-11 3 -17.5 11.5t-6.5 19.5v766q0 16 12.5 25.5t27.5 5.5l472 -126l472 126q15 4 27 -6q13 -9 13 -25v-766q0 -11 -6.5 -19.5t-17.5 -11.5zM392 577l-224 60q-12 4 -23.5 -2.5t-15 -19.5t3 -24.5t19.5 -14.5l224 -60
q4 -1 8 -1q11 0 19.5 6.5t11.5 16.5q3 13 -3.5 24.5t-19.5 14.5zM392 418l-224 60q-12 3 -23.5 -3.5t-15 -19.5t3 -24t19.5 -15l224 -60q4 -1 8 -1q11 0 19.5 6.5t11.5 17.5q3 13 -3.5 24t-19.5 15zM392 258l-224 60q-12 4 -23.5 -3t-15 -19.5t3 -24t19.5 -14.5l224 -60
q4 -1 8 -1q11 0 19.5 6.5t11.5 16.5q3 13 -3.5 24.5t-19.5 14.5zM894.5 615q-3.5 13 -14.5 19.5t-24 2.5l-224 -60q-13 -3 -19.5 -14.5t-3.5 -24.5q3 -10 11.5 -16.5t19.5 -6.5q4 0 8 1l224 60q13 3 19.5 14.5t3 24.5zM894.5 455q-3.5 13 -14.5 19.5t-24 3.5l-224 -60
q-13 -4 -19.5 -15t-3.5 -24q3 -11 11.5 -17.5t19.5 -6.5q4 0 8 1l224 60q13 4 19.5 15t3 24zM894.5 295.5q-3.5 12.5 -14.5 19.5t-24 3l-224 -60q-13 -3 -19.5 -14.5t-3.5 -24.5q3 -10 11.5 -16.5t19.5 -6.5q4 0 8 1l224 60q13 3 19.5 14.5t3 24z" />
    <glyph glyph-name="uniE60C" unicode="&#xe60c;" 
d="M896 -128h-608h-64h-64h-32q-53 0 -90.5 37.5t-37.5 90.5v352h224v544h800v-896q0 -53 -37.5 -90.5t-90.5 -37.5zM224 288h-160v-288q0 -26 19 -45t45 -19h32q26 0 45 19t19 45v288zM960 832h-672v-832q0 -33 -18 -64h626q26 0 45 19t19 45v832zM352 96h544v-64h-544v64z
M352 224h544v-64h-544v64zM352 640h544v-352h-544v352zM416 352h416v224h-416v-224zM352 768h544v-64h-544v64z" />
    <glyph glyph-name="uniE60D" unicode="&#xe60d;" 
d="M896 -128h-608h-64h-64h-32q-53 0 -90.5 37.5t-37.5 90.5v352h224v544h800v-896q0 -53 -37.5 -90.5t-90.5 -37.5zM224 288h-160v-288q0 -26 19 -45t45 -19h32q26 0 45 19t19 45v288zM896 768h-544v-64h544v64zM896 640h-544v-352h544v352zM896 224h-544v-64h544v64z
M896 96h-544v-64h544v64zM832 352h-416v224h416v-224z" />
    <glyph glyph-name="uniE60E" unicode="&#xe60e;" 
d="M896 -128h-768q-53 0 -90.5 37.5t-37.5 90.5v768q0 53 37.5 90.5t90.5 37.5h768q53 0 90.5 -37.5t37.5 -90.5v-768q0 -53 -37.5 -90.5t-90.5 -37.5zM960 768q0 26 -19 45t-45 19h-768q-26 0 -45 -19t-19 -45v-768q0 -26 19 -45t45 -19h768q26 0 45 19t19 45v768zM864 288
q-10 0 -18 5l-76 51l-119 -95l231 -159q11 -7 13.5 -20t-5.5 -24q-9 -14 -26 -14q-10 0 -18 6l-494 339l-174 -116q-8 -5 -18 -5q-17 0 -27 14q-7 11 -4.5 24t13.5 21l192 128h1q1 1 7 3q1 0 2 0.5t2 0.5q1 1 2 1l2 -1q6 1 8 0q1 0 2 -1h1q6 -2 9 -4l226 -155l152 122
q19 14 38 2l96 -64q11 -8 13.5 -21t-4.5 -24q-10 -14 -27 -14zM592 480q-60 0 -102 42t-42 102t42 102t102 42t102 -42t42 -102t-42 -102t-102 -42zM592 704q-33 0 -56.5 -23.5t-23.5 -56.5t23.5 -56.5t56.5 -23.5t56.5 23.5t23.5 56.5t-23.5 56.5t-56.5 23.5z" />
    <glyph glyph-name="uniE60F" unicode="&#xe60f;" 
d="M896 -128h-768q-53 0 -90.5 37.5t-37.5 90.5v768q0 53 37.5 90.5t90.5 37.5h768q53 0 90.5 -37.5t37.5 -90.5v-768q0 -53 -37.5 -90.5t-90.5 -37.5zM592 768q-60 0 -102 -42t-42 -102t42 -102t102 -42t102 42t42 102t-42 102t-102 42zM882 347l-96 64q-19 12 -38 -2
l-152 -122l-226 155q-3 2 -9 4h-1q-1 1 -2 1q-2 1 -8 0l-2 1q-1 0 -2 -1q-1 0 -2 -0.5t-2 -0.5q-6 -2 -7 -3h-1l-192 -128q-11 -8 -13.5 -21t4.5 -24q10 -14 27 -14q10 0 18 5l174 116l494 -339q8 -6 18 -6q17 0 26 14q8 11 5.5 24t-13.5 20l-231 159l119 95l76 -51
q8 -5 18 -5q17 0 27 14q7 11 4.5 24t-13.5 21zM592 544q-33 0 -56.5 23.5t-23.5 56.5t23.5 56.5t56.5 23.5t56.5 -23.5t23.5 -56.5t-23.5 -56.5t-56.5 -23.5z" />
    <glyph glyph-name="uniE610" unicode="&#xe610;" horiz-adv-x="1025" 
d="M897 -128h-768q-53 0 -90.5 37.5t-37.5 90.5v768q0 44 28 79l9 11q37 38 91 38h608v-256h288v-640q0 -53 -37.5 -90.5t-90.5 -37.5zM673 832h-544q-27 0 -45.5 -19t-18.5 -45v-64q0 -3 1 -9v-2q2 -10 7 -20l1 -1v-1q2 -3 5 -6q1 -3 2 -3q2 -3 5 -5l4 -4q3 -2 5 -3t5.5 -3
t4.5 -2q3 -1 7 -3h2l2 -1q7 -1 13 -1h544v192zM961 384h-256q-27 0 -45.5 -19t-18.5 -45v-128q0 -26 18.5 -45t45.5 -19h256v256zM961 64h-256q-53 0 -90.5 37.5t-37.5 90.5v128q0 53 37.5 90.5t90.5 37.5h256v128h-224h-608q-11 0 -23 2q-3 1 -6 1q-12 3 -21 7q-8 3 -14 7
v-593q0 -26 18.5 -45t45.5 -19h768q26 0 45 19t19 45v64zM800.5 352q39.5 0 68 -28t28.5 -68t-28.5 -68t-68 -28t-67.5 28t-28 68t28 68t67.5 28zM769 224h64v64h-64v-64z" />
    <glyph glyph-name="uniE611" unicode="&#xe611;" 
d="M704 256q0 40 28 68t68 28t68 -28t28 -68t-28 -68t-68 -28t-68 28t-28 68zM832 288h-64v-64h64v64zM1024 0q0 -53 -37.5 -90.5t-90.5 -37.5h-768q-53 0 -90.5 37.5t-37.5 90.5v768q0 44 28 79l9 11q38 38 91 38h608v-256h288v-256h-320q-26 0 -45 -19t-19 -45v-128
q0 -26 19 -45t45 -19h320v-128zM672 640v192h-544q-26 0 -45 -19t-19 -45v-64q0 -3 1 -9v-2q2 -10 7 -20v-1q1 0 1 -1q2 -3 5 -6l2 -3l5 -5l4 -4q3 -2 5 -3t5.5 -3t4.5 -2q3 -1 8 -3h2q1 -1 2 -1q6 -1 12 -1h544zM0 688z" />
    <glyph glyph-name="uniE612" unicode="&#xe612;" 
d="M999 391q-54 63 -142 126q-76 55 -153 87q-98 40 -191.5 40t-190.5 -40q-77 -32 -154 -87q-87 -63 -141 -126q-12 -13 0 -26q54 -63 141 -126q77 -55 154 -87q97 -40 190.5 -40t191.5 40q77 32 153 87q88 63 142 126q11 13 0 26zM359 575q79 28 154 28t153 -28
q51 -58 51 -136q0 -84 -59.5 -144t-144.5 -60t-145 60t-60 144q0 78 51 136zM833 272q-72 -52 -145 -82q-90 -37 -175 -37t-175 37q-73 29 -145 81q-68 49 -123 107q55 58 123 107q49 35 98 60q-24 -50 -24 -106q0 -101 72 -173t174 -72t173.5 72t71.5 173q0 56 -24 106
q50 -25 99 -60q67 -49 122 -107q-54 -58 -122 -106zM615 439.5q0 -42.5 -30 -72.5t-72.5 -30t-72 30t-29.5 72.5t29.5 72.5t72 30t72.5 -30t30 -72.5z" />
    <glyph glyph-name="uniE613" unicode="&#xe613;" 
d="M694 580q17 -2 50.5 -1.5t45.5 -1.5q34 -6 50.5 -33t12.5 -69h-54q-1 -54 -1 -298q0 -16 1 -48.5t0.5 -56.5t-2.5 -44q-3 -31 -23.5 -50.5t-50.5 -25.5q-17 -2 -38.5 -2.5t-50.5 0.5t-41 1q-29 0 -82.5 -0.5t-97 -0.5t-81.5 1q-63 1 -92 39q-3 4 -5 8.5t-4 10.5t-3 10
t-2 12l-2 12v13v14v14v15v376h-52q-6 38 8.5 65t43.5 36q12 4 30.5 4.5t35.5 -0.5t38 0q-3 49 6 74.5t42 29.5q9 1 21.5 1t29 -0.5t25.5 -0.5h152h16h19q5 0 14 -1t14.5 -3t10.5 -6q6 -5 9.5 -12.5t4.5 -18.5t1.5 -19.5t0 -22.5t0.5 -21zM380 629v-50h262v52h-261
q-1 0 -1 -2zM329 469v-318q0 -6 -0.5 -19.5t-0.5 -24t0.5 -22.5t3 -20t7.5 -11q5 -4 15 -4t16 4q5 3 7.5 11t3.5 20t1 22t-0.5 23.5t-0.5 19.5v322h-51q-1 -1 -1 -3zM485 469v-308q0 -3 -1.5 -30t-0.5 -44.5t6 -24.5q5 -8 18 -11t21 3q4 4 6.5 12.5t3 20.5t0.5 23t-1 24
t-1 18v320h-51q-1 -1 0 -3zM642 469v-323q0 -5 -0.5 -20.5t-0.5 -24t1 -20t5 -18.5t10 -9q7 -3 16.5 -2t13.5 4q5 4 7 17.5t2 26t-1 31t-1 23.5v318h-51q-1 -1 -1 -3z" />
    <glyph glyph-name="uniE614" unicode="&#xe614;" 
d="M980 850q-30 29 -68 29h-808q-40 0 -68 -28.5t-28 -68.5q0 -39 26 -67q1 0 0.5 -1.5t0.5 -2.5l276 -280v-167q0 -20 15.5 -34t36.5 -14q19 0 33 13.5t14 33.5v1v197q0 12 -6 17l-297 300l-1 1q0 2 -1 2h806q-1 0 -2 -2q-1 -1 -1 -2l-302 -298q-10 -11 -10 -18v-9
q0 -12 1.5 -188.5t2.5 -291.5q-1 1 -1.5 2t-1.5 2l-75 75q-7 7 -17 7t-17 -7l-34 -34q-7 -7 -7 -17t8 -18l78 -77q2 -2 4 -3q28 -26 63 -26q40 0 67 28t27 68v459l282 280l2 1l2 2q27 29 27 67q0 41 -27 69zM365 196q-22 0 -37.5 -15.5t-15.5 -37.5t15.5 -37.5t37.5 -15.5
t38 15.5t16 37.5t-16 37.5t-38 15.5z" />
    <glyph glyph-name="uniE615" unicode="&#xe615;" 
d="M366 530h-292q-31 0 -52.5 -21.5t-21.5 -52.5v-144q0 -31 21.5 -52.5t52.5 -21.5h292v-292q0 -31 21.5 -52.5t52.5 -21.5h144q31 0 52.5 21.5t21.5 52.5v292h292q31 0 52.5 21.5t21.5 52.5v144q0 31 -21.5 52.5t-52.5 21.5h-292v292q0 31 -21.5 52.5t-52.5 21.5h-144
q-31 0 -52.5 -21.5t-21.5 -52.5v-292z" />
    <glyph glyph-name="uniE616" unicode="&#xe616;" 
d="M516 888q-103 0 -197 -40t-162 -108t-108.5 -162t-40.5 -197.5t40.5 -197.5t108.5 -162t162 -108t197 -40t197 40t162 108t108 162t40 197.5t-40 197.5t-108 162t-162 108t-197 40zM516 -81q-94 0 -179.5 36.5t-147.5 98t-98.5 147t-36.5 179.5t36.5 179.5t98.5 147.5
t147.5 98.5t179.5 36.5t179.5 -36.5t147 -98.5t98 -147.5t36.5 -179.5t-36.5 -179.5t-98 -147t-147 -98t-179.5 -36.5zM400 265l-138 138l-46 -46l184 -184l393 392l-47 46z" />
    <glyph glyph-name="uniE617" unicode="&#xe617;" 
d="M384 166l181 51l-130 129zM867 518l-129 128l-284 -282l129 -129zM830 42q0 -34 -24 -57.5t-57 -23.5h-486q-33 0 -57 23.5t-24 57.5v485q0 34 24 57.5t57 23.5h324l81 81h-432q-55 0 -94.5 -39.5t-39.5 -95.5v-539q0 -56 39.5 -95.5t94.5 -39.5h540q56 0 95.5 39.5
t39.5 95.5v431l-81 -81v-323zM928 626l-81 80q-10 10 -25 9.5t-25 -10.5l-39 -39l129 -128l39 38q11 11 11.5 25.5t-9.5 24.5z" />
    <glyph glyph-name="uniE618" unicode="&#xe618;" 
d="M512 730q-120 0 -222 -51.5t-161.5 -140t-59.5 -192.5q0 -93 47.5 -173.5t129.5 -133.5q-1 -57 0 -169q107 71 160 103q52 -11 106 -11q120 0 222 51.5t161.5 139.5t59.5 192.5t-59.5 193t-161.5 140t-222 51.5zM299.5 287q-24.5 0 -41.5 17t-17 41.5t17 41.5t41.5 17
t42 -17t17.5 -41.5t-17.5 -41.5t-42 -17zM521 287q-24 0 -41.5 17t-17.5 41.5t17.5 41.5t41.5 17t41.5 -17t17.5 -41.5t-17.5 -41.5t-41.5 -17zM742.5 287q-24.5 0 -42 17t-17.5 41.5t17.5 41.5t42 17t41.5 -17t17 -41.5t-17 -41.5t-41.5 -17z" />
    <glyph glyph-name="uniE619" unicode="&#xe619;" 
d="M878 550q-60 96 -160 153t-218 57q-91 0 -173.5 -35.5t-142.5 -95t-95 -142t-35 -173.5q0 -133 73 -244q60 -97 160.5 -154t217.5 -57q91 0 173.5 35.5t142.5 95t95 142t35 173.5q0 134 -73 245zM778 389q-203 -196 -297 -297q-14 -16 -28.5 -15.5t-22.5 7t-8 8.5
l-173 172q-17 20 -2 40q16 22 42 7q7 -4 14 -12q12 -13 27.5 -27t29 -29t27.5 -28t25.5 -25t20.5 -20.5t13 -13.5l5 -5l288 288q13 12 30 6t21 -22t-12 -34z" />
    <glyph glyph-name="uniE61A" unicode="&#xe61a;" 
d="M782 571.5q55 -55.5 84 -126.5q29 -70 28 -145q1 -75 -28 -144q-29 -72 -84 -127t-127 -84q-69 -28 -144 -28t-144 28q-72 29 -127 84t-84 127q-28 69 -28 144t28 145q29 71 84 126.5t127 84.5q69 28 144 28t144 -28q72 -29 127 -84.5zM828 617q-65 64 -148.5 97.5
t-168.5 33.5t-168.5 -33.5t-147.5 -97.5q-86 -86 -116.5 -201.5t0 -230.5t116.5 -201q64 -64 147.5 -97.5t168.5 -33.5t168.5 33.5t148.5 97.5q85 86 115.5 201t0 230.5t-115.5 201.5v0zM557 299l160 159l-45 45l-160 -159l-159 159l-46 -45l160 -160l-157 -156l45 -46
l157 157l157 -157l45 45zM714 141z" />
    <glyph glyph-name="uniE61B" unicode="&#xe61b;" 
d="M512 845q107 0 183 -76t76 -184q0 -107 -76 -183q-29 -30 -66 -48q110 -28 195 -106q63 -58 102 -136t47 -166q0 -8 -6 -15t-15 -8q-8 -1 -15 5t-8 15q-7 79 -42 149.5t-92 122.5q-121 111 -283 111q-80 0 -153 -29t-130 -82q-57 -52 -92 -122.5t-42 -149.5q-1 -9 -8 -15
t-16 -5t-14.5 8t-5.5 15q8 88 47 166t102 136q85 78 194 106q-36 19 -65 48q-76 76 -76 183q0 108 76 184t183 76zM664 738q-62 63 -152 63q-89 0 -153 -63q-62 -63 -62 -153q0 -89 62 -153q64 -62 153 -62t152 62q63 64 63 153q0 90 -63 153z" />
    <glyph glyph-name="uniE61C" unicode="&#xe61c;" 
d="M966.5 186.5q-2.5 8.5 -10.5 13t-17 1.5l-40 -13q47 92 47 196q0 88 -34 169q-33 78 -93 138t-138 93q-81 34 -169 34q-82 0 -157 -29q-10 -4 -14 -13t0 -18.5t13 -13.5t18 -1q67 27 140 27q77 0 147.5 -29.5t125 -84t84 -125t29.5 -147.5q0 -98 -47 -184l-3 1l-17 56
q-3 9 -11 13t-16.5 1.5t-13 -10.5t-1.5 -17l32 -103q3 -9 11 -13t17 -2l103 33q9 3 13 11t1.5 16.5zM648 23q-65 -25 -136 -25q-77 0 -147.5 29.5t-125 84t-84 125t-29.5 147.5q0 97 46 182l17 -55q2 -9 10 -13t17 -1.5t13 10.5t2 17l-32 103q-3 9 -11 13t-17 2l-103 -33
q-9 -3 -13 -11t-1.5 -16.5t10.5 -13t17 -1.5l44 14q-47 -92 -47 -197q0 -88 34 -169q33 -78 93 -138t138 -93q81 -34 169 -34q80 0 153 28q10 3 14 12.5t0.5 18.5t-12.5 13.5t-19 0.5z" />
    <glyph glyph-name="uniE61D" unicode="&#xe61d;" 
d="M380 93q-13 0 -21.5 9t-8.5 21.5t9 21.5l244 238l-244 239q-9 9 -9 21.5t8.5 21t21 9t21.5 -8.5l265 -260q9 -9 9 -21.5t-9 -21.5l-265 -260q-9 -9 -21 -9z" />
    <glyph glyph-name="uniE61E" unicode="&#xe61e;" horiz-adv-x="1031" 
d="M978 143h-119v119q0 20 -13.5 33t-33 13t-33 -13t-13.5 -33v-126h-132q-20 0 -33 -13t-13 -33t13 -33t33 -13h126v-126q0 -20 13 -33t33 -13t33 13t13 33v126h126q20 0 33 13t13 33q5 19 -10.5 36t-35.5 17zM509 11h-364q-19 0 -32.5 13t-13.5 33v694q0 19 13.5 32.5
t32.5 13.5h687q20 0 33.5 -13.5t13.5 -32.5v-350q0 -20 13 -33.5t33 -13.5t33 13.5t13 33.5v0v396q0 40 -29.5 69.5t-69.5 29.5h-773q-40 0 -69.5 -29.5t-29.5 -69.5v-786q0 -40 29.5 -69.5t69.5 -29.5h410q20 0 33 13t13 33q0 24 -13 38.5t-33 14.5v0zM509 156
q14 30 45.5 48t66.5 18h53v60q0 39 22 71t57 48v0l-66 198l-231 -298l-66 106l-245 -251h364zM390 579q0 30 -21.5 51.5t-51.5 21.5t-51.5 -21.5t-21.5 -51.5t21.5 -51.5t51.5 -21.5t51.5 21.5t21.5 51.5zM390 579z" />
    <glyph glyph-name="uniE61F" unicode="&#xe61f;" 
d="M535 501q-48 0 -81.5 34t-33.5 81.5t33.5 81.5t81.5 34t81.5 -34t33.5 -81.5t-33.5 -81.5t-81.5 -34zM289.5 409q-43.5 0 -74.5 31t-31 74.5t31 74.5t74.5 31t74.5 -31t31 -74.5t-31 -74.5t-74.5 -31zM185 171q-39 0 -66 27t-27 65.5t27 66t65.5 27.5t66 -27.5t27.5 -66
t-27.5 -65.5t-65.5 -27zM289.5 -65q-32.5 0 -55.5 23t-23 55.5t23 55.5t55.5 23t55.5 -23t23 -55.5t-23 -55.5t-55.5 -23zM534.5 -156q-28.5 0 -48.5 20.5t-20 49t20 48.5t48.5 20t49 -20t20.5 -48.5t-20.5 -49t-49 -20.5zM784 -39q-23 0 -39 16t-16 39t16 39.5t39 16.5
t39.5 -16.5t16.5 -39.5t-16.5 -39t-39.5 -16zM886.5 218q-18.5 0 -32 13.5t-13.5 32t13.5 32t32 13.5t32 -13.5t13.5 -32t-13.5 -32t-32 -13.5zM749 511.5q0 -14.5 10.5 -25t25 -10.5t25 10.5t10.5 25t-10.5 25t-25 10.5t-25 -10.5t-10.5 -25z" />
    <glyph glyph-name="uniE620" unicode="&#xe620;" 
d="M399 459q-2 2 -6 5.5t-17.5 10t-28 9.5t-35.5 0t-42 -15q-58 -36 -55 -108q0 -8 1 -8q-6 -1 -16 -4t-35.5 -16t-45 -31t-35.5 -52t-16 -76q1 -31 10.5 -55.5t23 -40t31.5 -27t33 -17t31 -8.5t22 -3.5t9 -0.5l313 1l-145 131l80 -1v159h103l1 -159l78 -1l-117 -130h264
q3 0 8 0.5t21 3.5t30.5 7.5t32.5 15.5t32.5 25.5t26 38t15.5 52.5q3 44 -11.5 79.5t-33.5 54t-44 32.5t-35.5 17t-16.5 4q0 3 0.5 8t-0.5 21t-3 32t-8 37.5t-15 40.5t-24 39.5t-34.5 36t-47.5 27t-62 15.5q-51 5 -94 -8.5t-68.5 -36t-43 -47.5t-24.5 -40.5t-7 -17.5z" />
    <glyph glyph-name="uniE621" unicode="&#xe621;" 
d="M229 367h273v-273q0 -7 5 -12t12 -5t12 5t5 12v273h273q7 0 12 5t5 12t-5 12t-12 5h-273v273q0 7 -5 12t-12 5t-12 -5t-5 -12v-273h-273q-7 0 -12 -5t-5 -12t5 -12t12 -5zM0 896v-1024h1024v1024h-1024zM1007 -111h-990v990h990v-990z" />
    <glyph glyph-name="uniE623" unicode="&#xe623;" horiz-adv-x="1025" 
d="M231 -128l281 143l281 -143v1024h-562v-1024zM413 617v-266q0 -19 -8.5 -26t-30.5 -7q-18 0 -38 2q-1 13 -6 26q22 -4 43 -4q15 0 15 10v265h-23q-22 0 -36 -1v26q17 -2 36 -2h71q18 0 33 2v-26q-11 1 -33 1h-23zM590 495v-38q0 -44 -5 -61q-11 -36 -46 -58
q-23 -14 -74 -32q-7 14 -18 23q57 14 87 36q20 15 27 40q4 15 4 52v39q0 22 -3 36h30q-2 -12 -2 -37zM680 307q-44 40 -87 65l15 19q53 -31 88 -61zM696 628q-14 2 -37 2h-71q-9 -25 -19 -49h65q22 0 39 1q-2 -12 -2 -28v-122q0 -22 3 -41h-30q2 19 2 41v127h-138v-128
q0 -21 3 -40h-30q3 19 3 40v121q0 19 -2 30q17 -1 36 -1h25q12 27 18 49h-47q-26 0 -38 -2v27q14 -3 38 -3h144q25 0 38 3v-27z" />
    <glyph glyph-name="uniE624" unicode="&#xe624;" horiz-adv-x="1450" 
d="M511 268h211v-25h-211v25zM581 554h74v-38h-74v38zM688 554h73v-38h-73v38zM478 554h70v-38h-70v38zM511 319h211v-25h-211v25zM511 217h211v-28h-211v28zM1431 598q0 35 -26 61q-25 25 -61 26l-953 -1q-37 0 -80 -18t-69 -43l-199 -199q-25 -25 -25 -61q0 -37 25 -62
l199 -199q26 -25 69 -43t79 -17l954 -1q36 0 61 25t26 62v470zM271 302q-25 -26 -61 -26t-61.5 25.5t-25.5 61.5t25.5 61t61.5 25t61.5 -25t25.5 -61t-26 -61zM1075 479q29 -3 85 -4q9 30 13 60q-72 -1 -96 -4v40q32 -4 130 -4q68 0 101 4v-40q-32 4 -98 4q-8 -29 -12 -60
q61 0 97 4q-3 -24 -3 -75v-81q0 -40 4 -71h-44v189h-135v-202h-42q3 28 3 71v94q0 52 -3 75zM831 153q-45 4 -217 4q-173 0 -218 -4v40q35 -3 77 -4v153q0 41 -2 59q20 -2 122 -2l3 27q-122 0 -188 -5v37q78 -4 191 -5l3 34q-103 -1 -164 -4q4 60 0 105q86 -4 182 -4
q97 0 183 4q-8 -52 0 -105q-79 4 -166 4l-3 -34q114 1 189 5v-37q-80 5 -192 5l-2 -27q112 0 133 2q-2 -15 -2 -59v-153q30 1 71 4v-40zM998 207q0 -34 -11.5 -45t-60.5 -20q-5 27 -25 51q33 -2 45 2.5t12 16.5v324q-53 -1 -81 -4v41q27 -4 98 -4q66 0 89 4v-41q-16 3 -66 4
v-329zM1059 136q-10 23 -28 42q115 20 129 100q11 62 10 130q30 -5 47 -5q8 0 1 -5q-6 -5 -8 -20q-10 -98 -15 -120q-11 -44 -44 -73.5t-92 -48.5zM1293 139q-45 51 -103 85l28 27q70 -41 106 -77zM511 370h211v-26h-211v26z" />
  </font>
</defs>
</svg>
